<?xml version="1.0" standalone="no"?>
<!DOCTYPE svg PUBLIC "-//W3C//DTD SVG 20010904//EN"
 "http://www.w3.org/TR/2001/REC-SVG-20010904/DTD/svg10.dtd">
<svg version="1.0" xmlns="http://www.w3.org/2000/svg"
 width="2048.000000pt" height="2048.000000pt" viewBox="0 0 2048.000000 2048.000000"
 preserveAspectRatio="xMidYMid meet">

<g transform="translate(0.000000,2048.000000) scale(0.100000,-0.100000)"
fill="#000000" stroke="none">
<path d="M9810 20470 c-47 -5 -103 -13 -125 -19 -22 -6 -69 -11 -105 -11 -69
0 -374 -28 -600 -55 -287 -34 -749 -115 -1035 -182 -137 -32 -412 -101 -445
-112 -14 -5 -43 -13 -65 -19 -303 -82 -979 -322 -1230 -437 -27 -13 -122 -56
-210 -95 -454 -204 -968 -489 -1393 -772 -1050 -700 -1940 -1556 -2666 -2568
-290 -405 -466 -686 -717 -1145 -165 -303 -407 -835 -541 -1190 -103 -271
-273 -802 -322 -1002 -8 -32 -22 -85 -31 -118 -14 -52 -40 -162 -65 -275 -106
-476 -185 -1023 -220 -1515 -5 -77 -15 -167 -22 -200 -18 -85 -18 -955 0
-1040 7 -33 17 -123 22 -200 30 -429 92 -882 177 -1303 60 -299 92 -434 192
-794 51 -186 177 -566 269 -813 49 -131 204 -499 281 -665 77 -166 289 -582
338 -665 16 -27 54 -93 83 -145 118 -208 315 -517 488 -765 493 -704 1078
-1345 1767 -1934 66 -57 136 -115 155 -129 19 -15 60 -47 90 -73 118 -98 462
-348 693 -503 607 -405 1251 -744 1897 -996 102 -40 207 -81 233 -92 142 -57
717 -239 893 -282 32 -8 95 -24 139 -35 129 -33 365 -87 435 -100 36 -7 83
-16 105 -21 85 -19 180 -36 460 -80 132 -21 493 -62 720 -81 132 -11 287 -24
345 -29 139 -12 735 -12 880 0 317 25 494 41 580 50 119 13 392 46 485 59 168
23 579 100 752 141 45 11 122 29 171 41 730 172 1535 471 2239 834 669 345
1242 722 1838 1210 227 186 443 383 705 643 216 215 287 289 430 450 116 130
186 212 292 343 262 323 490 639 712 987 437 686 799 1447 1055 2218 76 230
143 451 181 599 10 39 28 106 39 150 73 284 113 477 170 820 62 379 83 561
142 1275 13 149 5 855 -10 950 -5 36 -15 133 -21 215 -65 894 -250 1782 -548
2630 -217 619 -529 1285 -860 1840 -289 483 -657 995 -1020 1418 -401 468
-885 937 -1360 1320 -415 335 -801 599 -1342 917 -258 152 -831 436 -1073 531
-28 11 -69 28 -91 38 -249 112 -816 306 -1181 406 -71 19 -146 40 -165 45
-305 84 -870 193 -1225 235 -77 9 -168 20 -203 25 -34 5 -160 16 -280 25 -119
9 -257 23 -307 32 -71 13 -173 17 -490 19 -220 1 -438 -2 -485 -6z m-3935
-3990 c435 -20 3734 -31 5342 -18 476 4 865 3 868 -2 3 -4 44 -11 93 -15 134
-10 137 -11 150 -19 7 -4 22 -6 35 -5 12 1 40 -3 62 -9 22 -6 66 -13 97 -14
32 -2 58 -6 58 -10 0 -4 15 -7 33 -7 52 0 92 -5 97 -13 3 -4 26 -8 50 -9 25
-1 62 -8 84 -16 21 -7 53 -13 71 -13 17 0 35 -3 38 -6 4 -4 23 -8 44 -10 39
-3 70 -11 158 -39 28 -8 61 -17 75 -20 37 -6 131 -31 160 -43 14 -6 59 -21
100 -33 41 -12 131 -41 200 -66 69 -24 136 -48 150 -53 46 -15 195 -73 235
-90 22 -10 58 -25 80 -34 22 -10 56 -26 76 -37 20 -10 44 -19 52 -19 9 0 38
-12 64 -26 26 -15 64 -35 83 -46 19 -10 68 -39 108 -63 41 -25 76 -45 79 -45
9 0 158 -94 161 -102 2 -5 10 -8 18 -8 8 0 14 -3 14 -7 0 -5 19 -17 41 -28 23
-10 43 -25 46 -32 3 -7 9 -10 14 -7 5 3 9 2 9 -3 0 -4 14 -14 31 -22 17 -7 49
-28 72 -45 23 -17 60 -43 82 -56 22 -13 42 -27 45 -30 6 -8 156 -121 179 -135
9 -5 18 -12 21 -15 3 -3 32 -27 65 -55 68 -58 355 -345 355 -356 0 -5 11 -19
23 -33 13 -14 32 -37 43 -51 10 -15 35 -47 54 -73 73 -99 116 -158 144 -202
15 -25 34 -48 40 -52 6 -4 7 -8 3 -8 -7 0 0 -10 31 -45 6 -7 12 -16 12 -19 0
-3 21 -43 48 -88 26 -46 54 -97 62 -113 8 -17 17 -32 21 -35 3 -3 11 -21 19
-40 7 -19 22 -47 32 -62 10 -14 18 -31 18 -37 0 -6 4 -19 10 -29 5 -9 17 -35
26 -57 9 -22 22 -53 29 -70 24 -54 74 -197 95 -270 29 -104 59 -224 65 -265 3
-25 11 -58 16 -75 5 -16 11 -50 14 -75 2 -25 7 -65 11 -90 11 -80 17 -400 9
-510 -10 -152 -27 -276 -45 -335 -5 -16 -11 -48 -13 -70 -2 -22 -7 -47 -10
-55 -15 -37 -31 -107 -29 -123 1 -10 -3 -15 -8 -12 -6 3 -10 -1 -10 -9 0 -9
-14 -55 -30 -104 -17 -48 -30 -87 -29 -87 0 0 -4 -11 -9 -25 -6 -14 -13 -32
-16 -40 -3 -8 -10 -22 -15 -30 -26 -43 -71 -140 -65 -140 3 0 1 -6 -5 -14 -7
-8 -29 -47 -50 -88 -55 -107 -64 -122 -79 -131 -7 -5 -10 -12 -7 -18 4 -5 1
-9 -4 -9 -6 0 -11 -6 -11 -13 0 -7 -25 -50 -55 -95 -30 -46 -55 -85 -55 -89 0
-3 -13 -21 -30 -40 -16 -18 -30 -39 -30 -46 0 -7 -14 -25 -30 -41 -17 -16 -30
-33 -30 -38 0 -5 -6 -15 -12 -23 -7 -7 -29 -32 -48 -56 -19 -23 -45 -53 -57
-65 -13 -13 -23 -25 -23 -27 0 -14 -308 -327 -322 -327 -4 0 -13 -8 -20 -18
-7 -9 -47 -46 -88 -80 -41 -35 -88 -75 -105 -90 -16 -14 -33 -26 -36 -27 -3 0
-13 -8 -23 -17 -10 -10 -20 -18 -24 -18 -4 0 -19 -10 -34 -23 -60 -51 -91 -72
-125 -87 -13 -5 -23 -14 -23 -20 0 -6 -5 -8 -10 -5 -6 3 -13 -1 -16 -9 -3 -9
-10 -16 -15 -16 -5 0 -47 -27 -93 -60 -47 -33 -87 -60 -90 -60 -6 0 -116 -70
-126 -80 -3 -3 -35 -21 -72 -40 -38 -19 -68 -39 -68 -44 0 -5 -3 -7 -6 -4 -5
6 -226 -103 -276 -136 -14 -9 -28 -13 -31 -9 -4 3 -7 1 -7 -6 0 -7 -4 -9 -10
-6 -5 3 -10 1 -10 -4 0 -6 -3 -10 -7 -9 -8 2 -46 -13 -102 -40 -19 -10 -37
-17 -40 -17 -18 -2 -81 -30 -81 -37 0 -4 -3 -7 -7 -6 -13 3 -57 -13 -73 -27
-8 -7 -28 -15 -45 -18 -16 -3 -41 -9 -55 -15 -14 -5 -50 -17 -80 -27 -30 -10
-60 -22 -66 -27 -7 -5 -16 -8 -20 -7 -5 1 -12 0 -16 -1 -5 -1 -12 -4 -18 -5
-5 -1 -11 -3 -12 -5 -2 -1 -12 -3 -23 -5 -43 -6 -171 -38 -188 -47 -19 -10
-40 -15 -92 -23 -47 -7 -75 -13 -114 -27 -20 -6 -43 -13 -51 -14 -8 -1 -35 -7
-60 -13 -25 -6 -57 -13 -72 -16 -16 -2 -45 -9 -65 -15 -21 -6 -58 -13 -83 -16
-25 -3 -52 -7 -60 -11 -8 -3 -33 -8 -55 -10 -22 -3 -47 -9 -55 -13 -8 -4 -33
-8 -55 -9 -36 -2 -80 -8 -80 -11 0 0 -18 -3 -40 -5 -22 -3 -53 -7 -70 -9 -75
-11 -174 -19 -365 -32 -276 -19 -1252 -1 -1605 29 -77 7 -199 11 -271 10 -110
-2 -140 -6 -195 -27 -53 -19 -70 -32 -97 -70 -17 -25 -39 -65 -48 -88 -24 -66
-27 -254 -10 -532 9 -137 20 -350 24 -475 9 -293 9 -1589 0 -1751 -10 -166
-27 -369 -33 -400 -3 -14 -12 -110 -20 -215 -21 -257 -23 -274 -36 -313 -14
-43 -20 -220 -8 -228 5 -3 9 -16 9 -28 0 -26 58 -147 87 -183 10 -12 50 -34
88 -49 69 -27 74 -28 268 -27 136 1 203 6 213 14 8 6 14 8 14 3 0 -5 42 -10
93 -11 51 -2 142 -11 202 -22 137 -24 139 -24 146 -34 4 -5 18 -10 32 -10 14
-1 23 -5 21 -8 -2 -3 19 -18 47 -33 55 -31 206 -177 208 -204 3 -21 14 -42 23
-42 5 0 8 -6 5 -13 -2 -6 1 -19 8 -27 61 -77 90 -380 50 -530 -9 -36 -17 -73
-18 -82 -1 -10 -5 -18 -9 -18 -4 0 -8 -7 -8 -15 0 -15 -44 -99 -65 -125 -7 -8
-11 -23 -10 -32 2 -9 -2 -15 -8 -13 -7 3 -23 -14 -37 -36 -25 -41 -135 -136
-152 -132 -4 2 -8 -2 -8 -7 0 -6 -7 -10 -15 -10 -8 0 -15 -3 -15 -7 0 -5 -19
-17 -42 -28 -45 -22 -46 -22 -84 -24 -14 0 -23 -5 -20 -9 2 -4 -3 -8 -12 -9
-9 -1 -30 -7 -47 -14 -16 -7 -43 -14 -60 -16 -16 -2 -55 -7 -85 -13 -76 -13
-168 -14 -600 -5 -206 4 -1124 8 -2040 10 -1113 1 -1711 5 -1803 13 -76 6
-199 12 -275 13 -150 2 -426 30 -537 54 -194 43 -310 109 -398 227 -27 37 -90
160 -99 195 -3 10 -6 21 -7 25 -17 57 -21 85 -22 154 -1 106 46 283 88 335 7
8 13 21 13 28 0 13 -2 11 79 108 146 173 275 239 561 284 67 10 99 9 295 -16
256 -32 367 -30 475 8 79 28 130 54 130 67 0 6 6 10 14 10 11 0 53 42 105 106
5 6 19 36 31 65 12 30 28 68 35 85 31 73 27 278 -8 355 -9 19 -18 52 -20 74
-11 88 -40 180 -63 203 -13 12 -46 27 -74 33 -39 8 -56 19 -76 45 -32 41 -59
126 -74 230 -11 81 -14 104 -25 234 -3 41 -11 112 -16 156 -5 46 -8 403 -7
820 1 407 2 2064 2 3684 1 2858 3 3105 29 3445 16 218 16 537 0 543 -7 2 -13
15 -13 28 0 50 -70 133 -145 171 -90 46 -178 64 -330 67 -295 7 -382 25 -591
128 -60 30 -102 61 -165 122 -82 80 -144 151 -144 165 0 4 -8 15 -17 25 -10
10 -18 23 -18 30 0 7 -11 30 -25 50 -14 20 -25 43 -25 50 0 8 -7 19 -15 26 -8
7 -13 16 -10 20 3 4 -2 27 -11 51 -16 44 -36 319 -23 319 4 0 10 21 14 47 11
75 67 181 135 256 34 37 65 67 70 67 4 0 35 18 67 40 33 22 70 41 81 43 12 2
25 6 28 10 4 4 16 7 26 7 10 0 18 5 18 10 0 6 6 10 13 8 6 -1 36 4 65 11 29 7
59 10 68 7 10 -4 13 -2 8 6 -5 7 -2 9 7 6 8 -3 42 -2 74 2 88 11 253 11 490 0z"/>
<path d="M7815 15253 c-38 -6 -172 -60 -207 -85 -14 -10 -31 -18 -36 -18 -19
0 -163 -143 -190 -189 -45 -76 -61 -153 -57 -266 6 -180 25 -428 40 -525 33
-213 61 -519 71 -780 5 -134 23 -1147 27 -1520 1 -69 -3 -808 -8 -1642 -5
-949 -5 -1518 1 -1518 6 0 9 -421 8 -1107 -2 -988 -5 -1203 -19 -1293 -2 -14
-13 -97 -25 -185 -31 -234 -88 -500 -126 -590 -30 -71 -41 -543 -14 -580 4 -5
10 -23 14 -40 19 -80 110 -228 187 -304 60 -59 130 -98 243 -136 67 -23 90
-25 237 -25 216 0 269 10 404 79 94 47 122 67 193 139 89 91 139 168 175 265
20 56 22 84 25 302 l3 240 -36 155 c-20 85 -45 205 -55 265 -11 61 -24 119
-29 130 -14 29 -20 63 -42 215 -10 74 -18 158 -18 185 0 28 -4 120 -11 205
-23 332 32 1754 70 1780 6 4 19 131 35 345 3 33 10 85 15 115 35 182 53 1408
26 1785 -8 116 -20 224 -25 240 -6 17 -18 92 -26 169 -9 76 -20 146 -24 155
-18 36 -33 94 -37 149 -2 31 -8 99 -14 151 -16 141 -21 819 -11 1221 15 535
32 925 42 928 5 2 9 32 9 67 0 35 4 66 9 69 4 3 11 49 15 103 4 54 16 170 28
258 25 194 30 492 9 605 -26 148 -67 202 -245 324 -136 94 -231 137 -336 153
-81 12 -230 15 -295 6z"/>
<path d="M6293 15073 c-20 -8 -15 -39 12 -71 14 -17 25 -35 25 -41 0 -6 5 -11
11 -11 7 0 17 -6 23 -14 17 -21 59 -27 81 -10 19 14 19 15 -5 59 -14 25 -30
45 -37 45 -7 0 -13 4 -13 8 0 8 -65 43 -78 41 -4 0 -13 -3 -19 -6z"/>
<path d="M9538 15043 c-27 -31 -36 -57 -31 -86 3 -15 8 -27 12 -27 12 1 36 25
55 54 14 23 16 33 7 52 -13 29 -23 30 -43 7z"/>
<path d="M10032 14969 c-23 -6 -40 -14 -38 -18 3 -3 -7 -8 -22 -9 -76 -6 -162
-96 -188 -196 -17 -67 -23 -220 -13 -371 9 -132 16 -248 29 -495 12 -228 32
-1406 25 -1509 -2 -42 -7 -213 -10 -381 -6 -336 -7 -350 -36 -695 -34 -414
-55 -601 -83 -735 -9 -41 -16 -78 -16 -82 0 -4 -13 -2 -30 3 -18 7 -30 18 -30
29 0 10 -7 23 -15 30 -8 7 -15 20 -15 29 0 9 -5 22 -10 27 -8 8 -40 156 -40
187 0 16 -40 6 -41 -10 0 -17 -12 -167 -25 -325 -7 -84 2 -133 43 -225 16 -38
28 -53 42 -53 11 0 21 -5 23 -11 4 -12 88 63 88 78 0 16 44 31 73 26 15 -3 27
-12 27 -19 0 -8 8 -14 18 -14 10 0 45 -9 77 -21 75 -27 255 -32 430 -13 255
28 416 36 865 45 442 8 559 14 765 39 157 18 457 60 550 76 183 31 508 103
560 123 11 5 61 23 110 41 111 41 298 138 427 222 53 35 123 79 155 99 202
125 226 144 311 239 118 131 252 320 343 485 42 75 122 236 139 280 74 187 84
218 110 355 12 63 26 138 32 165 16 82 22 410 9 535 -13 126 -40 273 -73 395
-42 158 -147 402 -212 490 -12 17 -27 43 -34 58 -6 15 -19 30 -27 33 -8 4 -15
10 -15 16 0 5 -11 26 -25 46 -14 20 -25 45 -25 55 0 10 -6 20 -14 23 -8 3 -24
25 -35 49 -11 24 -47 71 -79 104 -32 34 -56 61 -53 61 15 0 -69 74 -97 87 -35
14 -72 10 -72 -9 0 -6 14 -40 30 -75 17 -34 30 -68 30 -73 0 -6 4 -10 8 -10
12 0 42 -66 42 -93 1 -19 12 -55 34 -107 3 -8 2 -21 -3 -29 -7 -11 -16 -7 -44
22 -19 21 -42 37 -51 37 -10 0 -15 4 -12 8 5 8 -37 52 -48 52 -2 0 -24 19 -48
43 -24 23 -57 53 -74 67 -16 14 -61 52 -99 85 -39 33 -84 70 -101 82 -45 31
-146 97 -169 110 -37 21 -280 141 -330 163 -27 12 -63 28 -80 35 -36 16 -113
44 -140 51 -11 3 -29 9 -40 14 -29 11 -185 57 -220 65 -16 3 -42 9 -57 12 -16
3 -28 9 -28 13 0 5 -12 9 -27 8 -16 0 -57 7 -93 17 -36 9 -85 18 -110 21 -25
2 -74 11 -110 19 -73 15 -247 42 -330 50 -47 5 -125 15 -240 30 -14 2 -191 9
-395 15 -203 6 -482 15 -620 21 -442 17 -509 18 -553 8z m4045 -1096 c-3 -10
-5 -4 -5 12 0 17 2 24 5 18 2 -7 2 -21 0 -30z"/>
<path d="M9544 9055 c-4 -11 -12 -23 -18 -27 -14 -10 6 -43 25 -43 17 0 24 48
10 72 -9 17 -10 17 -17 -2z"/>
<path d="M9504 5117 c-36 -41 -44 -158 -18 -254 9 -32 16 -64 17 -70 0 -7 3
-11 5 -8 3 3 10 -5 16 -18 14 -28 54 -35 63 -11 3 9 1 72 -5 139 -8 97 -16
135 -37 179 -15 31 -27 56 -28 56 -1 -1 -7 -6 -13 -13z"/>
</g>
</svg>
